<?xml version="1.0" encoding="UTF-8"?>
<svg id="Capa_1" data-name="Capa 1" xmlns="http://www.w3.org/2000/svg" viewBox="0 0 935.44 187.87">
  <defs>
    <style>
      .cls-1 {
        fill: #1d1d1b;
      }

      .cls-2 {
        fill: #f7a72f;
      }
    </style>
  </defs>
  <rect class="cls-1" x="469.96" y="6.66" width="2.17" height="174.21"/>
  <path class="cls-1" d="M732.47,141.5v2.84h13.96v36.53h3v-36.53h13.9v-2.84h-30.86ZM707.78,181.98c5.39,0,10.4-1.89,14.79-5.56l-.44-3.23h-.17c-4.23,3.84-9.01,5.84-14.01,5.84-9.73,0-16.63-7.45-16.63-17.91s6.84-17.79,16.52-17.79c4.95,0,9.62,1.95,13.9,5.84h.17l.45-3.28c-4.45-3.67-9.34-5.51-14.63-5.51-11.46,0-19.68,8.67-19.68,20.85s8.23,20.74,19.74,20.74M674.81,162.07v-2.78h-17.68v-14.96h19.02l-.39-2.84h-21.69v39.37h21.69l.39-2.84h-19.02v-15.96h17.68ZM633.77,177.42c0,4.73-1.61,6.62-4.51,8.06l-.06.22,1.39,2.17c4.11-1.89,6.17-4.62,6.17-10.57v-35.81h-3v35.92ZM599.12,179.03c-10.07,0-16.46-7.9-16.46-17.85s6.34-17.85,16.46-17.85,16.46,7.78,16.46,17.85-6.34,17.85-16.46,17.85M599.12,181.98c12.07,0,19.74-9.06,19.74-20.8s-7.51-20.8-19.74-20.8-19.74,9.12-19.74,20.8,7.73,20.8,19.74,20.8M546.3,144.28h6.28c7.28,0,10.62,2.72,10.62,8.34,0,5.06-2.95,8.23-10.12,8.23h-6.78v-16.57ZM557.48,163.13c5.78-1.22,8.9-5.06,8.9-10.51,0-7.28-4.56-11.12-13.12-11.12h-10.01v39.37h3.06v-17.24h7.95l12.18,17.24h3.17l.22-.5-12.34-17.24ZM509.43,161.96v-17.68h6.56c7.4,0,10.9,2.84,10.9,8.9s-3.39,8.79-11.12,8.79h-6.34ZM516.66,141.5h-10.29v39.37h3.06v-16.13h7.06c8.84,0,13.51-4.45,13.51-11.57,0-7.62-4.45-11.68-13.35-11.68"/>
  <path class="cls-1" d="M762.11,115.25c7.51,0,12.4-4.67,12.4-10.73,0-5.06-2.28-8.29-10.9-12.35-7.56-3.67-9.45-5.45-9.45-9.29,0-3.62,3.11-6.51,7.78-6.51,3.78,0,6.95,1.28,10.01,3.39h.17l.39-3.11c-2.95-1.78-6.28-3-10.45-3-6.73,0-11.12,4-11.12,9.34,0,5,2.61,8.06,10.45,11.57,7.95,3.62,9.9,6.17,9.9,10.12,0,4.23-3.5,7.79-9.12,7.79-4.23,0-8.12-2-11.23-4.39h-.17l-.5,3.17c3,2.17,7.17,4,11.85,4M723.41,115.25c5.39,0,10.4-1.89,14.79-5.56l-.44-3.23h-.17c-4.23,3.84-9.01,5.84-14.01,5.84-9.73,0-16.63-7.45-16.63-17.91s6.84-17.79,16.52-17.79c4.95,0,9.62,1.95,13.9,5.84h.17l.45-3.28c-4.45-3.67-9.34-5.51-14.63-5.51-11.45,0-19.68,8.67-19.68,20.85s8.23,20.74,19.74,20.74M686.15,114.14h3.06v-39.37h-3.06v39.37ZM643.39,74.77v2.84h13.96v36.53h3v-36.53h13.9v-2.84h-30.86ZM628.49,114.14h3.06v-39.37h-3.06v39.37ZM594.4,114.14h21.85l.39-2.84h-19.18v-36.53h-3.06v39.37ZM560.2,112.3c-10.06,0-16.46-7.9-16.46-17.85s6.34-17.85,16.46-17.85,16.46,7.78,16.46,17.85-6.34,17.85-16.46,17.85M560.2,115.25c12.07,0,19.74-9.06,19.74-20.8s-7.51-20.8-19.74-20.8-19.74,9.12-19.74,20.8,7.73,20.8,19.74,20.8M509.43,95.23v-17.68h6.56c7.4,0,10.9,2.84,10.9,8.9s-3.39,8.79-11.12,8.79h-6.34ZM516.66,74.77h-10.29v39.37h3.06v-16.13h7.06c8.84,0,13.51-4.45,13.51-11.57,0-7.62-4.45-11.68-13.35-11.68"/>
  <path class="cls-1" d="M913.19,47.41h21.85l.39-2.84h-19.18V8.04h-3.06v39.37ZM880.5,20.72c1.22-2.95,2.45-5.9,3.5-8.67h.11l3.5,8.73,5.39,13.01h-17.85l5.34-13.07ZM882.94,7.98l-16.68,39.26.11.17h3.23l4.45-10.95h20.07l4.5,10.95h3.23l.17-.17-16.74-39.26h-2.34ZM826.17,47.41v-23.86c0-3.67.06-6.89,0-10.06h.11c2.45,3,4.89,6.01,7.28,9.01l20.35,25.63h1.11V8.04h-3v33.09h-.06c-2.45-3-4.84-6-7.28-9.06l-19.02-24.02h-2.5v39.37h3ZM788.97,45.57c-10.07,0-16.46-7.9-16.46-17.85s6.34-17.85,16.46-17.85,16.46,7.78,16.46,17.85-6.34,17.85-16.46,17.85M788.97,48.52c12.07,0,19.74-9.06,19.74-20.8s-7.51-20.8-19.74-20.8-19.74,9.12-19.74,20.8,7.73,20.8,19.74,20.8M751.71,47.41h3.06V8.04h-3.06v39.37ZM708.95,8.04v2.84h13.96v36.53h3V10.87h13.9v-2.84h-30.86ZM684.43,20.72c1.22-2.95,2.45-5.9,3.5-8.67h.11l3.5,8.73,5.39,13.01h-17.85l5.34-13.07ZM686.87,7.98l-16.68,39.26.11.17h3.22l4.45-10.95h20.07l4.5,10.95h3.23l.17-.17-16.74-39.26h-2.34ZM630.1,47.41v-23.86c0-3.67.06-6.89,0-10.06h.11c2.45,3,4.89,6.01,7.28,9.01l20.35,25.63h1.11V8.04h-3v33.09h-.06c-2.45-3-4.84-6-7.28-9.06l-19.02-24.02h-2.5v39.37h3ZM591.34,28.39h7.28c7.51,0,11.18,2.78,11.18,8.23s-3.45,8.01-11.51,8.01h-6.95v-16.24ZM591.34,10.82h6.79c6.28,0,9.73,2.56,9.73,7.17,0,4.95-3.5,7.84-9.45,7.84h-7.06v-15.02ZM598.46,47.41c9.84,0,14.46-3.61,14.46-10.79,0-5.39-3.23-8.9-8.79-9.84v-.06c4.28-1.22,6.78-4.56,6.78-8.84,0-6.29-4.39-9.84-12.51-9.84h-10.12v39.37h10.18ZM556.42,48.52c9.84,0,14.9-5.84,14.9-16.68V8.04h-3.06v23.58c0,9.4-3.84,14.01-11.84,14.01s-11.9-4.62-11.9-13.96V8.04h-3.06v23.86c0,10.95,4.89,16.63,14.96,16.63M515.05,48.52c7.51,0,12.4-4.67,12.4-10.73,0-5.06-2.28-8.29-10.9-12.35-7.56-3.67-9.45-5.45-9.45-9.29,0-3.62,3.11-6.51,7.78-6.51,3.78,0,6.95,1.28,10.01,3.39h.17l.39-3.11c-2.95-1.78-6.28-3-10.45-3-6.73,0-11.12,4-11.12,9.34,0,5,2.61,8.06,10.45,11.57,7.95,3.61,9.9,6.17,9.9,10.12,0,4.23-3.5,7.78-9.12,7.78-4.23,0-8.12-2-11.23-4.39h-.17l-.5,3.17c3,2.17,7.17,4,11.84,4"/>
  <path class="cls-2" d="M355.41,180.87v-53.3h27.53c12.63,0,23.32-2.27,32.08-6.82,10.27-5.22,18.4-12.71,24.38-22.48,5.98-9.77,8.97-20.46,8.97-32.08s-3.03-22.27-9.09-31.96c-6.06-9.68-14.23-17.13-24.5-22.36-8.93-4.55-19.54-6.82-31.83-6.82h-73.51v175.81h45.97ZM208.91,180.87v-53.3h27.53c12.63,0,23.32-2.27,32.08-6.82,10.27-5.22,18.4-12.71,24.38-22.48,5.98-9.77,8.97-20.46,8.97-32.08s-3.03-22.27-9.09-31.96c-6.06-9.68-14.23-17.13-24.5-22.36-8.93-4.55-19.54-6.82-31.83-6.82h-73.51v175.81h45.97ZM76.04,185.41c12.8,0,24.71-2.32,35.74-6.95,11.03-4.63,19.91-11.32,26.65-20.08,6.73-8.75,10.1-19.2,10.1-31.32,0-12.8-3.12-22.73-9.35-29.81-6.23-7.07-13.6-12-22.1-14.78-8.5-2.78-20.33-5.68-35.49-8.71-9.26-2.02-16.92-4.29-22.99-6.82-6.06-2.53-9.09-6.48-9.09-11.87,0-4.88,2.27-8.75,6.82-11.62,4.55-2.86,10.94-4.29,19.2-4.29,10.27,0,17.85,2.15,22.73,6.44,4.88,4.29,7.32,10.99,7.32,20.08h41.18c0-4.88-.34-9.89-1.01-15.03-.67-5.13-2.61-10.48-5.81-16.04-6.4-11.62-15.2-20.29-26.4-26.02C102.35,2.87,89.09,0,73.76,0c-12.63,0-24.29,2.11-34.99,6.32-10.7,4.21-19.24,10.57-25.64,19.07-6.4,8.5-9.6,18.82-9.6,30.94s3.2,21.89,9.6,29.3c6.4,7.41,14.31,12.93,23.75,16.55,9.43,3.62,20.63,6.69,33.6,9.22,1.18.17,4.29.72,9.35,1.64,5.05.93,10.14,2.49,15.28,4.67,5.13,2.19,7.7,5.73,7.7,10.61,0,5.9-2.53,10.27-7.58,13.14-5.05,2.87-11.96,4.29-20.71,4.29-10.61,0-18.86-2.53-24.76-7.58-5.9-5.05-8.76-12.38-8.59-21.98H0c-.17,23.07,6.36,40.38,19.58,51.91,13.22,11.54,32.04,17.3,56.46,17.3"/>
</svg>